<svg width="696" height="701" viewBox="0 0 696 701" fill="none" xmlns="http://www.w3.org/2000/svg">
<g clip-path="url(#clip0_125_409)">
<path d="M337.668 1.13377C244.601 10.6004 161.401 50.4671 97.6676 115.8C41.1342 173.8 9.00088 241.4 1.66755 317.534C-10.0658 440.734 36.6009 550.2 133.001 625.134C169.001 653.134 204.201 671.134 247.134 683.534C281.534 693.4 301.934 697.134 333.534 699.667C407.801 705.534 479.134 691.534 541.934 659C589.134 634.467 626.334 603 655.001 563C663.134 551.534 677.001 528.734 677.001 526.6C677.001 525.934 672.601 524.067 667.401 522.6C635.401 513.267 581.534 507.534 546.068 509.667L529.934 510.6L518.601 521.267C478.734 558.867 427.934 580.6 366.334 586.334C344.334 588.467 308.868 585.8 289.668 580.734L284.334 579.4L289.001 575.4C331.534 539.134 378.201 514.867 433.268 500.334C504.734 481.667 580.734 477.667 640.468 489.667C657.134 493 677.134 499.4 684.601 503.667L688.868 506.2L690.334 499.267C694.468 480.467 696.068 461.8 696.068 431.667C696.334 376.6 689.134 325 674.468 276.2C670.468 262.6 668.868 259 666.201 257.534C661.934 255.134 633.668 245.934 620.334 242.467C595.668 236.2 544.068 229 506.601 226.334C475.801 224.334 401.668 224.6 371.534 227C252.068 236.467 172.734 265.4 114.334 320.734C108.868 325.934 104.201 329.934 103.934 329.667C103.534 329.4 104.068 323.267 105.001 316.067C108.468 287.4 117.801 257.667 130.334 235C149.668 200.467 180.734 167.267 216.201 143.534C231.668 133.267 261.534 118.467 279.668 112.334C323.401 97.1338 374.468 92.8671 419.134 100.334C476.468 110.067 532.068 144.067 571.668 193.4C575.668 198.334 579.401 202.334 580.068 202.334C581.268 202.334 643.001 167.8 649.001 163.667C650.868 162.467 659.134 157.667 667.268 153.134L682.334 144.734L679.668 141C668.468 125.267 634.601 92.6004 611.134 74.8671C560.734 36.6004 496.068 11.1338 429.268 2.8671C409.134 0.467099 354.601 -0.599568 337.668 1.13377ZM455.534 250.867C457.268 252.867 460.334 275.934 459.268 278.734C458.601 280.6 414.468 284.467 412.868 282.734C411.801 281.4 409.001 262.6 409.001 256.334C409.001 251.134 409.934 250.734 421.668 249.934C440.601 248.734 454.068 249 455.534 250.867ZM528.334 251.134C532.068 251.534 535.668 252.2 536.601 252.734C538.068 253.667 542.468 280.334 541.401 281.4C540.468 282.467 501.668 280.6 499.534 279.534C496.334 277.934 493.134 251.934 495.801 250.2C497.534 249.134 513.001 249.534 528.334 251.134ZM371.534 259.267C372.334 262.067 373.268 269.534 373.801 275.8C374.868 289.534 375.534 289 357.534 292.2C350.868 293.4 341.268 295.534 336.201 297C331.134 298.334 326.601 299.134 326.068 298.6C325.001 297.4 321.001 272.2 321.001 266.6C321.001 262.867 321.534 262.334 326.334 261C332.334 259.4 361.001 254.734 366.601 254.467C369.668 254.334 370.468 255 371.534 259.267ZM586.868 257.134C593.268 258.067 598.334 259.667 599.668 261C601.934 263.267 607.268 287.134 605.801 288.6C604.734 289.8 573.934 283.8 572.868 282.2C571.801 280.334 569.001 262.6 569.001 257.534C569.001 254.467 569.401 254.2 572.734 254.867C574.734 255.267 581.134 256.334 586.868 257.134ZM639.534 268.334C645.668 270.334 650.868 272.734 651.534 274.067C653.134 277.134 658.601 299.934 657.801 300.6C657.534 301 652.334 299.667 646.334 297.8C640.468 295.934 634.734 294.334 633.801 294.334C630.601 294.334 629.001 290.867 627.001 279.534C625.934 273.4 625.001 267.534 625.001 266.6C625.001 264.334 627.534 264.6 639.534 268.334ZM284.201 272.867C285.668 275.134 290.334 306.867 289.268 307.8C288.734 308.334 280.601 311.267 271.001 314.334C261.534 317.534 251.001 321.267 247.801 322.6C243.534 324.334 241.668 324.734 241.001 323.534C240.468 322.734 239.001 315.667 237.668 307.934C236.468 300.067 235.134 292.067 234.734 290.067C234.068 286.734 234.601 286.067 240.468 283.534C249.801 279.534 275.668 271.8 279.934 271.667C281.934 271.667 283.801 272.2 284.201 272.867ZM203.401 301.934C205.534 305.934 210.868 336.467 209.934 338.867C209.401 340.067 207.134 342.067 204.868 343.4C202.601 344.6 193.268 350.6 184.068 356.734C174.868 362.734 167.001 367.534 166.734 367.134C165.534 366.067 161.001 342.867 160.068 334.067L159.268 325.134L167.134 320.2C179.934 311.8 200.201 299.667 201.268 299.667C201.801 299.667 202.734 300.734 203.401 301.934ZM526.334 303.134C527.934 304.734 531.134 331 535.668 378.334C539.401 418.2 540.201 413.934 528.734 414.867C469.934 419.134 419.534 426.334 383.668 435.667C378.201 437.134 373.268 437.8 372.734 437.267C372.334 436.734 370.334 418.6 368.334 397C366.468 375.4 364.068 349 363.001 338.467C361.934 327 361.668 318.334 362.334 317C364.601 312.867 403.668 306.334 445.668 303.134C474.201 300.867 524.201 301 526.334 303.134ZM599.668 308.334C621.801 312.067 648.068 318.467 656.334 322.2L661.934 324.734L664.201 339.134C668.068 364.867 670.334 386.6 671.268 407.934L672.068 428.867L659.534 425.534C643.668 421.534 615.534 417.267 595.934 416.2C587.668 415.667 580.468 414.6 579.801 413.8C579.001 413 577.268 398.734 575.668 382.334C574.068 365.8 571.668 342.2 570.334 329.667C569.001 317.267 568.201 306.6 568.468 306.067C569.668 304.2 579.934 305 599.668 308.334ZM294.868 337.267C295.268 339.667 297.401 356.6 299.668 375C303.401 406.334 307.801 440.2 309.668 452.334L310.468 457.667L295.401 465.4C266.601 480.067 236.201 500.6 209.934 523.4L195.534 535.934L189.934 531.267C186.734 528.734 179.801 521.4 174.334 515C155.134 492.734 141.801 472.067 131.534 448.334L126.334 436.334L138.468 424.467C176.334 387.934 224.734 357.8 277.668 337.8C293.001 331.934 293.801 331.934 294.868 337.267ZM140.201 363C142.201 374.334 143.668 384.467 143.401 385.534C142.868 387.8 118.468 409.534 117.401 408.6C117.001 408.2 114.868 398.734 112.734 387.534L108.601 367.267L121.268 354.867C128.201 347.934 134.468 342.334 135.268 342.334C135.934 342.334 138.201 351.667 140.201 363ZM600.734 437.934C601.934 439.534 602.334 443.934 602.068 451.667L601.668 463L585.001 462.6C575.801 462.334 567.934 461.667 567.401 461.267C566.868 460.734 566.068 454.467 565.534 447.4L564.601 434.467L569.134 434.067C571.668 433.8 579.401 434.067 586.334 434.6C596.068 435.4 599.401 436.2 600.734 437.934ZM536.334 446.734C537.801 464.067 539.134 462.734 518.334 464.6C504.068 465.934 499.934 465.934 498.601 464.6C497.668 463.534 496.868 458.2 496.601 450.334L496.334 437.667L501.001 436.867C503.534 436.334 512.334 435.934 520.601 435.8L535.401 435.667L536.334 446.734ZM645.668 441.4L659.001 444.467L658.601 457C658.468 463.934 657.934 469.8 657.668 470.067C656.734 471 628.468 466.067 626.734 464.734C624.868 463.267 624.201 440.867 625.934 439.267C627.268 437.8 631.401 438.334 645.668 441.4ZM464.201 445.934C466.334 455.667 467.134 467.934 465.801 469.534C463.934 471.934 426.201 480.067 424.601 478.467C423.934 477.8 422.468 471.4 421.268 464.334C418.734 448.467 418.201 449 436.601 445.8C443.801 444.467 450.601 443.267 451.668 443C452.734 442.867 455.934 442.6 458.601 442.467C462.868 442.334 463.534 442.734 464.201 445.934ZM388.601 463.934C389.401 467.4 390.601 474.2 391.001 479C391.934 487.134 391.801 487.667 388.868 488.867C372.601 495.534 351.534 503.267 351.134 502.467C350.468 501.534 345.001 473.134 345.001 470.734C345.001 469.934 347.801 468.2 351.401 467C363.534 462.734 383.001 457.134 385.001 457.4C386.201 457.534 387.668 460.334 388.601 463.934ZM321.134 495.134C324.734 513.8 324.601 515.267 319.268 517.534C316.734 518.467 308.868 523 301.668 527.534C294.468 532.067 288.201 535.4 287.668 534.734C286.468 533.4 279.668 507 279.668 503.534C279.668 502.2 281.668 499.534 284.201 497.667C291.268 492.334 316.201 479.667 317.401 480.867C318.068 481.534 319.668 487.934 321.134 495.134ZM260.468 535.267L265.001 551L260.601 554.734C258.334 556.867 253.668 560.734 250.468 563.4L244.734 568.2L239.134 565.134C230.468 560.067 221.001 552.867 221.001 551.134C221.001 548.067 253.801 517.534 255.534 519.134C255.801 519.4 258.068 526.6 260.468 535.267Z" fill="#E69783"/>
<path d="M355.669 115.267C327.269 118.333 291.136 128.867 263.003 142.467C216.469 164.733 172.336 205 145.003 249.667C138.869 259.667 124.603 290.333 125.536 291.267C125.803 291.667 129.936 288.867 134.603 285.267C146.069 276.2 166.469 263 177.003 257.667C184.069 254.067 186.736 251.8 190.603 245.933C198.069 234.867 214.069 216.2 226.469 204.333C280.869 152.333 342.069 125.667 416.336 121.533L433.669 120.467L425.403 118.867C407.269 115.133 373.403 113.4 355.669 115.267Z" fill="#E69783"/>
</g>
<defs>
<clipPath id="clip0_125_409">
<rect width="696" height="701" fill="white"/>
</clipPath>
</defs>
</svg>
